<svg width="720" height="360" viewBox="0 0 720 360" fill="none" xmlns="http://www.w3.org/2000/svg">
<path d="M54 20H666C684.8 20 700 35.2 700 54V264C700 282.8 684.8 298 666 298H280L132 340V298H54C35.2 298 20 282.8 20 264V54C20 35.2 35.2 20 54 20Z" fill="#0A0A0A" stroke="#C8F55A" stroke-linejoin="round"/>
<path d="M58 42H648C662.4 42 674 53.6 674 68V250" stroke="#C8F55A" stroke-opacity="0.28" stroke-width="2" stroke-linecap="round"/>
<path d="M58 58H76" stroke="#C8F55A" stroke-width="5" stroke-linecap="round"/>
<path d="M86 58H104" stroke="#C8F55A" stroke-width="5" stroke-linecap="round"/>
<path d="M114 58H132" stroke="#C8F55A" stroke-width="5" stroke-linecap="round"/>
<path d="M510 58H632C645.255 58 656 68.7452 656 82V132" stroke="#C8F55A" stroke-width="4" stroke-linecap="round"/>
<path d="M39 157V175" stroke="#C8F55A" stroke-width="4" stroke-linecap="round"/>
<path d="M39 189V207" stroke="#C8F55A" stroke-width="4" stroke-linecap="round"/>
<path d="M39 221V229" stroke="#C8F55A" stroke-width="4" stroke-linecap="round"/>
<path d="M69 265H63C49.745 265 39 254.255 39 241L39 191" stroke="#C8F55A" stroke-width="4" stroke-linecap="round"/>
<path d="M649 279C652.866 279 656 275.866 656 272C656 268.134 652.866 265 649 265C645.134 265 642 268.134 642 272C642 275.866 645.134 279 649 279Z" fill="#C8F55A"/>
<path d="M621 272H629" stroke="#C8F55A" stroke-width="4" stroke-linecap="round"/>
</svg>
